<svg width="198" height="72" viewBox="0 0 198 72" fill="none" xmlns="http://www.w3.org/2000/svg">
<rect x="0.5" y="0.5" width="197" height="71" rx="9.5" stroke="#A1AEBF"/>
<path d="M68.8732 28.8265H72.5243V43.4999H68.8732V28.8265ZM73.9726 37.9596C73.9726 34.3306 76.212 32.1652 79.6684 32.1652C83.1249 32.1652 85.3642 34.3306 85.3642 37.9596C85.3642 41.5886 83.1736 43.766 79.6684 43.766C76.1633 43.766 73.9726 41.6491 73.9726 37.9596ZM81.7009 37.9596C81.7009 35.9636 80.9098 34.7902 79.6684 34.7902C78.427 34.7902 77.6481 35.9999 77.6481 37.9596C77.6481 39.9193 78.4149 41.1048 79.6684 41.1048C80.922 41.1048 81.7009 39.9918 81.7009 37.9717V37.9596ZM86.7395 44.2136H90.2446C90.4115 44.582 90.6935 44.8869 91.0487 45.0831C91.404 45.2792 91.8135 45.3562 92.2163 45.3023C93.6037 45.3023 94.3339 44.5523 94.3339 43.4636V41.4314H94.2609C93.97 42.0542 93.4979 42.5761 92.9057 42.9298C92.3135 43.2834 91.6282 43.4525 90.9384 43.4152C88.273 43.4152 86.5083 41.3951 86.5083 37.9233C86.5083 34.4515 88.1878 32.262 90.987 32.262C91.6985 32.2343 92.4015 32.4234 93.0019 32.8038C93.6022 33.1844 94.0713 33.7382 94.3461 34.391V32.3709H97.9973V43.3789C97.9973 46.0281 95.6483 47.6733 92.1797 47.6733C88.9546 47.6733 86.9464 46.2338 86.7395 44.2257V44.2136ZM94.3461 37.9475C94.3461 36.1814 93.5307 35.0685 92.2406 35.0685C90.9505 35.0685 90.1594 36.1693 90.1594 37.9475C90.1594 39.7257 90.9384 40.7298 92.2406 40.7298C93.5428 40.7298 94.3461 39.7499 94.3461 37.9596V37.9475ZM99.3725 37.9475C99.3725 34.3185 101.612 32.1531 105.068 32.1531C108.525 32.1531 110.776 34.3185 110.776 37.9475C110.776 41.5765 108.586 43.7539 105.068 43.7539C101.551 43.7539 99.3725 41.6491 99.3725 37.9596V37.9475ZM107.101 37.9475C107.101 35.9515 106.31 34.7781 105.068 34.7781C103.827 34.7781 103.109 35.9999 103.109 37.9717C103.109 39.9435 103.876 41.1168 105.117 41.1168C106.358 41.1168 107.101 39.9918 107.101 37.9717V37.9475ZM112.164 29.7338C112.154 29.3674 112.254 29.0064 112.451 28.6966C112.649 28.3868 112.934 28.1422 113.271 27.9937C113.608 27.8452 113.982 27.7995 114.345 27.8625C114.708 27.9255 115.045 28.0942 115.311 28.3474C115.578 28.6005 115.763 28.9267 115.843 29.2845C115.923 29.6423 115.894 30.0156 115.76 30.3573C115.627 30.6987 115.394 30.9932 115.092 31.2031C114.789 31.4129 114.431 31.5289 114.062 31.5362C113.818 31.5529 113.573 31.5191 113.342 31.4371C113.111 31.3551 112.9 31.2266 112.722 31.0596C112.544 30.8927 112.402 30.6908 112.306 30.4667C112.21 30.2428 112.161 30.0015 112.164 29.758V29.7338ZM112.164 32.3951H115.815V43.4999H112.164V32.3951ZM129.069 37.9475C129.069 41.5765 127.45 43.6451 124.675 43.6451C123.964 43.6904 123.255 43.5176 122.646 43.1498C122.036 42.782 121.555 42.237 121.267 41.5886H121.194V47.0564H117.543V32.3709H121.194V34.3548H121.267C121.542 33.6956 122.014 33.1365 122.619 32.7534C123.224 32.3703 123.934 32.1818 124.651 32.2136C127.45 32.262 129.117 34.3427 129.117 37.9717L129.069 37.9475ZM125.417 37.9475C125.417 36.1814 124.602 35.0564 123.324 35.0564C122.046 35.0564 121.231 36.1935 121.219 37.9475C121.206 39.7015 122.046 40.8265 123.324 40.8265C124.602 40.8265 125.417 39.7257 125.417 37.9717V37.9475ZM135.336 32.141C138.367 32.141 140.205 33.5685 140.29 35.8548H136.967C136.967 35.0685 136.31 34.5725 135.3 34.5725C134.29 34.5725 133.839 34.9596 133.839 35.5281C133.839 36.0967 134.241 36.2781 135.057 36.4475L137.393 36.9193C139.62 37.391 140.57 38.2862 140.57 39.9677C140.57 42.266 138.464 43.7418 135.361 43.7418C132.257 43.7418 130.225 42.266 130.067 40.0039H133.584C133.693 40.8265 134.351 41.3104 135.422 41.3104C136.493 41.3104 136.979 40.9596 136.979 40.3789C136.979 39.7983 136.639 39.6773 135.762 39.4959L133.657 39.0483C131.478 38.6007 130.334 37.4515 130.334 35.758C130.359 33.5806 132.318 32.1652 135.336 32.1652V32.141ZM152.752 43.4757H149.235V41.4072H149.162C148.969 42.1016 148.543 42.7095 147.954 43.1299C147.365 43.5501 146.649 43.7576 145.925 43.7177C145.37 43.749 144.815 43.6616 144.297 43.4614C143.779 43.2612 143.311 42.953 142.923 42.5573C142.536 42.1618 142.238 41.6879 142.05 41.1681C141.863 40.6483 141.789 40.0946 141.836 39.5443V32.3709H145.487V38.7096C145.487 40.0281 146.168 40.7298 147.3 40.7298C147.565 40.7302 147.828 40.6745 148.07 40.566C148.311 40.4575 148.528 40.2987 148.703 40.1006C148.877 39.9023 149.009 39.6692 149.086 39.4169C149.162 39.1644 149.185 38.8985 149.15 38.637V32.3709H152.801L152.752 43.4757ZM154.517 32.3709H158.047V34.512H158.12C158.313 33.8267 158.731 33.2246 159.305 32.8C159.88 32.3754 160.581 32.1521 161.296 32.1652C162.025 32.1073 162.748 32.3239 163.324 32.7723C163.898 33.2206 164.283 33.8675 164.4 34.5846H164.473C164.693 33.8599 165.151 33.2289 165.773 32.7909C166.393 32.3529 167.144 32.1327 167.905 32.1652C168.401 32.1487 168.895 32.2361 169.356 32.4219C169.817 32.6076 170.232 32.8877 170.576 33.2435C170.921 33.5996 171.186 34.0235 171.355 34.4879C171.523 34.9523 171.592 35.447 171.556 35.9394V43.4999H167.905V36.9072C167.905 35.6975 167.357 35.141 166.335 35.141C166.107 35.1391 165.881 35.1858 165.673 35.278C165.465 35.3702 165.278 35.5056 165.127 35.6754C164.977 35.8451 164.863 36.0449 164.796 36.2616C164.73 36.4783 164.711 36.7067 164.74 36.9314V43.4999H161.272V36.8588C161.272 35.7459 160.724 35.141 159.726 35.141C159.496 35.1412 159.267 35.1898 159.058 35.2838C158.848 35.3779 158.659 35.5152 158.507 35.6866C158.353 35.858 158.239 36.0598 158.17 36.2786C158.101 36.4973 158.08 36.728 158.108 36.9556V43.4999H154.456L154.517 32.3709Z" fill="white"/>
<path d="M58.6616 29.4921C58.0423 28.0844 57.2226 26.7726 56.2275 25.5969C54.7567 23.807 52.9211 22.347 50.8417 21.3129C48.7622 20.2789 46.486 19.6944 44.1629 19.5977C41.8397 19.501 39.5224 19.8945 37.3632 20.7521C35.2041 21.6098 33.2522 22.9122 31.636 24.5737C30.0197 26.2351 28.7759 28.218 27.9862 30.3917C27.1965 32.5654 26.8789 34.8807 27.0543 37.1851C27.2298 39.4897 27.8942 41.7311 29.004 43.7619C30.1137 45.7928 31.6436 47.5671 33.493 48.9679C34.6796 49.8847 35.9908 50.63 37.3875 51.1816C39.3458 51.9792 41.4416 52.39 43.558 52.3913C47.9265 52.3817 52.1129 50.6509 55.1997 47.5783C58.2864 44.5057 60.0215 40.3421 60.0247 36.0001C60.0279 33.7604 59.5638 31.5444 58.6616 29.4921ZM43.5458 22.9235C45.4464 22.9233 47.3239 23.3362 49.0469 24.1332C48.6268 24.3136 48.185 24.4397 47.7325 24.5082C46.2435 24.7224 44.8642 25.4095 43.8004 26.4669C42.7366 27.5242 42.0453 28.8952 41.8298 30.3751C41.7352 31.2051 41.3554 31.9772 40.7545 32.5613C40.1536 33.1453 39.3685 33.5053 38.5315 33.5808C37.0426 33.795 35.6633 34.4821 34.5995 35.5395C33.5357 36.5969 32.8444 37.9678 32.6289 39.4477C32.5559 40.2369 32.2171 40.9785 31.6674 41.5525C30.7189 39.5606 30.2928 37.3623 30.4287 35.1627C30.5647 32.963 31.2583 30.8332 32.445 28.9715C33.6317 27.11 35.273 25.577 37.216 24.5153C39.1591 23.4536 41.3408 22.8977 43.558 22.8993L43.5458 22.9235ZM33.4808 44.4679C33.6268 44.3348 33.7729 44.2138 33.9189 44.0687C35.0017 43.0253 35.6967 41.648 35.8906 40.1614C35.9692 39.3258 36.3445 38.5453 36.9494 37.9598C37.5315 37.3576 38.3149 36.9876 39.1522 36.9195C40.6412 36.7052 42.0205 36.0181 43.0843 34.9608C44.1481 33.9034 44.8394 32.5325 45.055 31.0525C45.1077 30.1786 45.4849 29.3551 46.1138 28.7421C46.7103 28.1516 47.5011 27.795 48.341 27.738C49.7088 27.551 50.9846 26.9465 51.9922 26.0082C53.1395 26.9542 54.1114 28.0923 54.8644 29.3711C54.8182 29.4331 54.7651 29.49 54.7062 29.5404C54.1253 30.1479 53.3428 30.5261 52.5033 30.605C51.0128 30.8154 49.6314 31.5013 48.5669 32.5593C47.5025 33.6174 46.8124 34.9904 46.6006 36.4719C46.5148 37.3046 46.142 38.0823 45.5454 38.6731C44.9487 39.2641 44.1649 39.6317 43.3267 39.7138C41.8334 39.9264 40.449 40.6121 39.379 41.669C38.3091 42.7261 37.6106 44.0978 37.3875 45.5808C37.322 46.1719 37.1177 46.7396 36.7912 47.238C35.5425 46.5011 34.4241 45.5653 33.4808 44.4679ZM43.5458 49.1372C42.3109 49.1385 41.0818 48.9675 39.8946 48.6292C40.3008 47.8767 40.5648 47.0567 40.6736 46.2098C40.7589 45.3789 41.13 44.6026 41.7241 44.0121C42.3183 43.4215 43.0993 43.0527 43.9353 42.9679C45.4264 42.7561 46.8085 42.07 47.8747 41.0124C48.9409 39.9549 49.634 38.5825 49.8501 37.1009C49.9355 36.27 50.3065 35.4938 50.9007 34.9032C51.4949 34.3126 52.2759 33.9438 53.1118 33.859C54.234 33.714 55.3035 33.2987 56.2275 32.6493C56.7406 34.5823 56.8013 36.6063 56.4052 38.5662C56.009 40.5261 55.1664 42.3699 53.942 43.9559C52.7176 45.5418 51.1441 46.8281 49.3419 47.7157C47.5398 48.6034 45.5571 49.069 43.5458 49.0767V49.1372Z" fill="white"/>
</svg>
