<svg width="198" height="72" viewBox="0 0 198 72" fill="none" xmlns="http://www.w3.org/2000/svg">
<rect x="0.5" y="0.5" width="197" height="71" rx="9.5" stroke="#A1AEBF"/>
<path d="M51.439 16.9091C49.0368 16.9091 46.6581 17.3912 44.4387 18.3277C42.2193 19.2643 40.2028 20.637 38.5041 22.3675C36.8055 24.0981 35.4581 26.1525 34.5388 28.4136C33.6196 30.6746 33.1464 33.0981 33.1464 35.5454C33.1464 37.9927 33.6196 40.4162 34.5388 42.6773C35.4581 44.9384 36.8055 46.9927 38.5041 48.7233C40.2028 50.4539 42.8172 51.427 45.0366 52.3636C47.256 53.3001 49.0368 54.1818 51.439 54.1818V45.7306C50.2379 45.7306 48.8902 45.1047 47.7805 44.6363C46.6708 44.1681 45.8209 42.9996 44.9716 42.1344C44.1223 41.2691 43.4486 40.2419 42.989 39.1114C42.5293 37.9808 42.2927 37.2237 42.2927 36C42.2927 34.7762 42.5293 33.11 42.989 31.9795C43.4486 30.849 44.1223 29.8217 44.9716 28.9565C45.8209 28.0912 46.8292 27.4048 47.9389 26.9366C49.0486 26.4682 50.2379 26.2272 51.439 26.2272V16.9091Z" fill="white"/>
<path d="M51.8963 41.4545C55.1797 41.4545 57.8414 38.809 57.8414 35.5454C57.8414 32.2819 55.1797 29.6364 51.8963 29.6364C48.6128 29.6364 45.9512 32.2819 45.9512 35.5454C45.9512 38.809 48.6128 41.4545 51.8963 41.4545Z" fill="white"/>
<path d="M33.1464 36C33.1464 38.3876 33.6314 40.752 34.5736 42.9579C35.5159 45.1638 36.897 47.1681 38.6381 48.8565C40.3793 50.5448 42.4461 51.8841 44.721 52.7978C46.9959 53.7115 49.4341 54.1818 51.8964 54.1818C54.3586 54.1818 56.7969 53.7115 59.0717 52.7978C61.3466 51.8841 63.4135 50.5448 65.1546 48.8565C66.8957 47.1681 68.2768 45.1638 69.2191 42.9579C70.1613 40.752 70.6464 38.3876 70.6464 36H61.2714C61.2714 37.1939 61.0289 38.376 60.5577 39.479C60.0866 40.5819 59.396 41.5841 58.5255 42.4283C57.655 43.2724 56.6215 43.942 55.484 44.3989C54.3466 44.8558 53.1275 45.0909 51.8964 45.0909C50.6652 45.0909 49.4461 44.8558 48.3087 44.3989C47.1713 43.942 46.1378 43.2724 45.2672 42.4283C44.3967 41.5841 43.7061 40.5819 43.235 39.479C42.7638 38.376 42.5214 37.1939 42.5214 36H33.1464Z" fill="white"/>
<path d="M57.8414 36C57.8414 34.3123 57.215 32.6937 56.1002 31.5003C54.9852 30.3068 53.4731 29.6364 51.8963 29.6364C50.3196 29.6364 48.8075 30.3068 47.6925 31.5003C46.5775 32.6937 45.9512 34.3123 45.9512 36H51.8963H57.8414Z" fill="white"/>
<path d="M80.7078 28.7273H77.9639V41.4546H80.7078V28.7273Z" fill="white"/>
<path d="M81.6223 36.9091C81.6223 39.7196 83.7893 41.4546 86.6528 41.4546C89.5163 41.4546 91.6833 39.7196 91.6833 36.9091C91.6833 34.0986 89.5163 32.3636 86.6528 32.3636C83.7893 32.3636 81.6223 34.0986 81.6223 36.9091ZM84.0602 36.9091C84.0602 35.2436 85.1437 34.272 86.6528 34.272C88.1619 34.272 89.2454 35.2436 89.2454 36.9091C89.2454 38.5746 88.1619 39.5462 86.6528 39.5462C85.1437 39.5462 84.0602 38.5746 84.0602 36.9091Z" fill="white"/>
<path d="M99.5712 32.6098V33.7875H99.396C98.8703 33.0317 98.0293 32.3636 96.5224 32.3636C94.4548 32.3636 92.5975 34.1216 92.5975 36.8287C92.5975 39.5359 94.4548 41.2938 96.5224 41.2938C98.0293 41.2938 98.8703 40.6082 99.3609 39.9227H99.5361V40.7665C99.5361 42.4541 98.5549 43.2275 97.1181 43.2275C95.6814 43.2275 94.9454 42.4541 94.6475 41.452L92.6676 42.3134C93.1232 43.6318 94.4548 45.0909 97.1532 45.0909C99.9216 45.0909 101.744 43.6318 101.744 40.8191V32.6098H99.5712ZM97.1882 39.3953C95.8215 39.3953 94.8053 38.4109 94.8053 36.8287C94.8053 35.2466 95.8215 34.2622 97.1882 34.2622C98.5549 34.2622 99.5712 35.2466 99.5712 36.8287C99.5712 38.4109 98.5549 39.3953 97.1882 39.3953Z" fill="white"/>
<path d="M103.573 36.9091C103.573 39.7196 105.74 41.4546 108.604 41.4546C111.467 41.4546 113.634 39.7196 113.634 36.9091C113.634 34.0986 111.467 32.3636 108.604 32.3636C105.74 32.3636 103.573 34.0986 103.573 36.9091ZM106.011 36.9091C106.011 35.2436 107.095 34.272 108.604 34.272C110.113 34.272 111.196 35.2436 111.196 36.9091C111.196 38.5746 110.113 39.5462 108.604 39.5462C107.095 39.5462 106.011 38.5746 106.011 36.9091Z" fill="white"/>
<path d="M115.463 29.4336C115.463 30.3915 116.065 31.0489 116.836 31.0489C117.606 31.0489 118.207 30.3915 118.207 29.4336C118.207 28.4757 117.606 27.8182 116.836 27.8182C116.065 27.8182 115.463 28.4757 115.463 29.4336ZM117.806 32.1383H115.865V41.4546H117.806V32.1383Z" fill="white"/>
<path d="M120.037 45.0909H122.245V40.3585H122.419C122.91 41.0756 123.751 41.7567 125.258 41.7567C127.325 41.7567 129.183 39.9642 129.183 37.0602C129.183 34.1562 127.325 32.3636 125.258 32.3636C123.751 32.3636 122.91 33.0448 122.385 33.8157H122.209V32.6146H120.037V45.0909ZM124.592 39.8208C123.226 39.8208 122.209 38.8169 122.209 37.0602C122.209 35.3035 123.226 34.2996 124.592 34.2996C125.959 34.2996 126.975 35.3035 126.975 37.0602C126.975 38.8169 125.959 39.8208 124.592 39.8208Z" fill="white"/>
<path d="M131.348 35.0181C131.348 36.7183 132.874 37.3429 134.811 37.6899L135.296 37.7766C136.45 37.9847 136.971 38.245 136.971 38.8002C136.971 39.3554 136.45 39.789 135.37 39.789C134.29 39.789 133.415 39.3727 133.172 38.1235L131.012 38.644C131.33 40.4483 132.949 41.4546 135.37 41.4546C137.716 41.4546 139.244 40.431 139.244 38.6267C139.244 36.8223 137.68 36.3366 135.594 35.955L135.109 35.8682C134.141 35.6947 133.619 35.4518 133.619 34.8793C133.619 34.3588 134.104 34.0292 134.998 34.0292C135.892 34.0292 136.524 34.3761 136.748 35.313L138.871 34.7058C138.425 33.3179 137.065 32.3636 134.998 32.3636C132.8 32.3636 131.348 33.3179 131.348 35.0181Z" fill="white"/>
<path d="M149.305 41.3103V32.3636H146.904V36.9813C146.904 38.6407 146.047 39.6147 144.579 39.6147C143.283 39.6147 142.56 38.9474 142.56 37.5945V32.3636H140.158V37.7028C140.158 39.9214 141.626 41.4546 143.837 41.4546C145.57 41.4546 146.371 40.7331 146.752 39.9755H146.942V41.3103H149.305Z" fill="white"/>
<path d="M151.134 32.5079V41.4546H153.542V36.1155C153.542 34.8889 154.153 34.2035 155.261 34.2035C156.217 34.2035 156.79 34.7085 156.79 35.6826V41.4546H159.198V36.1155C159.198 34.8889 159.809 34.2035 160.917 34.2035C161.873 34.2035 162.445 34.7085 162.445 35.6826V41.4546H164.853V35.5743C164.853 33.4098 163.439 32.3636 161.681 32.3636C160.134 32.3636 159.427 33.013 158.968 33.7706H158.777C158.337 32.9229 157.554 32.3636 156.178 32.3636C154.802 32.3636 154.057 32.9408 153.695 33.6263H153.503V32.5079H151.134Z" fill="white"/>
</svg>
