<svg width="198" height="72" viewBox="0 0 198 72" fill="none" xmlns="http://www.w3.org/2000/svg">
<rect x="0.5" y="0.5" width="197" height="71" rx="9.5" stroke="#A1AEBF"/>
<path d="M24.8619 44.9471L24.8619 26.6393L34.0716 31.7248V39.9124L41.4395 44.0317L48.8072 39.9124V31.7248L58.017 26.6393V44.9471L41.4395 54.101L24.8619 44.9471Z" fill="white"/>
<path fill-rule="evenodd" clip-rule="evenodd" d="M29.4668 29.1822L24.8619 26.6394L41.4395 17.4855L58.017 26.6394L53.4121 29.1822V42.6587L41.4395 49.5242L29.4668 42.6587L29.4668 29.1822ZM52.9133 29.4577L48.8072 31.7249V31.6741L41.4395 27.5548L34.0716 31.6741V31.7249L29.9656 29.4577V42.3771L41.4395 48.9565L52.9133 42.3771V29.4577Z" fill="#A1AEBF"/>
<path d="M66.8429 43.5003V28.1217H69.7605V40.8639H76.8337V43.5003H66.8429Z" fill="white"/>
<path d="M83.1328 43.8079C82.0424 43.8079 81.0625 43.5882 80.1931 43.1487C79.3237 42.7094 78.6385 42.0723 78.1375 41.2375C77.6364 40.4026 77.3859 39.3993 77.3859 38.2277V37.8761C77.3859 36.7044 77.6364 35.7011 78.1375 34.8663C78.6385 34.0315 79.3237 33.3944 80.1931 32.955C81.0625 32.5155 82.0424 32.2959 83.1328 32.2959C84.2233 32.2959 85.2032 32.5155 86.0726 32.955C86.942 33.3944 87.6272 34.0315 88.1282 34.8663C88.6292 35.7011 88.8798 36.7044 88.8798 37.8761V38.2277C88.8798 39.3993 88.6292 40.4026 88.1282 41.2375C87.6272 42.0723 86.942 42.7094 86.0726 43.1487C85.2032 43.5882 84.2233 43.8079 83.1328 43.8079ZM83.1328 41.3473C83.9875 41.3473 84.6949 41.0764 85.2548 40.5344C85.8148 39.9779 86.0947 39.1869 86.0947 38.1617V37.9421C86.0947 36.9168 85.8148 36.1332 85.2548 35.5913C84.7096 35.0348 84.0022 34.7565 83.1328 34.7565C82.2782 34.7565 81.5708 35.0348 81.0109 35.5913C80.4509 36.1332 80.171 36.9168 80.171 37.9421V38.1617C80.171 39.1869 80.4509 39.9779 81.0109 40.5344C81.5708 41.0764 82.2782 41.3473 83.1328 41.3473Z" fill="white"/>
<path d="M89.9261 38.0958V37.7443C89.9261 36.6019 90.1545 35.6279 90.6113 34.8224C91.0681 34.0022 91.6723 33.3797 92.4238 32.955C93.1901 32.5155 94.0226 32.2959 94.9214 32.2959C95.9235 32.2959 96.6824 32.4717 97.1981 32.8232C97.7139 33.1747 98.0897 33.5409 98.3254 33.9217H98.7233V32.6034H101.464V45.4336C101.464 46.1805 101.243 46.7737 100.801 47.2132C100.359 47.6672 99.7695 47.8942 99.0327 47.8942H91.6944V45.4776H98.0602C98.4727 45.4776 98.6791 45.2578 98.6791 44.8185V41.9844H98.2812C98.1338 42.2187 97.9275 42.4604 97.6623 42.7094C97.397 42.9437 97.0434 43.1414 96.6013 43.3026C96.1593 43.4637 95.5993 43.5443 94.9214 43.5443C94.0226 43.5443 93.1901 43.3318 92.4238 42.9071C91.6723 42.4677 91.0681 41.8452 90.6113 41.0397C90.1545 40.2195 89.9261 39.2383 89.9261 38.0958ZM95.7172 41.1276C96.5718 41.1276 97.2865 40.8566 97.8612 40.3147C98.4359 39.7729 98.7233 39.0112 98.7233 38.03V37.8102C98.7233 36.8142 98.4359 36.0527 97.8612 35.5254C97.3012 34.9835 96.5866 34.7125 95.7172 34.7125C94.8625 34.7125 94.1478 34.9835 93.5732 35.5254C92.9985 36.0527 92.7111 36.8142 92.7111 37.8102V38.03C92.7111 39.0112 92.9985 39.7729 93.5732 40.3147C94.1478 40.8566 94.8625 41.1276 95.7172 41.1276Z" fill="white"/>
<path d="M108.773 43.8079C107.683 43.8079 106.703 43.5882 105.833 43.1487C104.964 42.7094 104.279 42.0723 103.778 41.2375C103.277 40.4026 103.026 39.3993 103.026 38.2277V37.8761C103.026 36.7044 103.277 35.7011 103.778 34.8663C104.279 34.0315 104.964 33.3944 105.833 32.955C106.703 32.5155 107.683 32.2959 108.773 32.2959C109.864 32.2959 110.844 32.5155 111.713 32.955C112.582 33.3944 113.268 34.0315 113.769 34.8663C114.27 35.7011 114.52 36.7044 114.52 37.8761V38.2277C114.52 39.3993 114.27 40.4026 113.769 41.2375C113.268 42.0723 112.582 42.7094 111.713 43.1487C110.844 43.5882 109.864 43.8079 108.773 43.8079ZM108.773 41.3473C109.628 41.3473 110.335 41.0764 110.895 40.5344C111.455 39.9779 111.735 39.1869 111.735 38.1617V37.9421C111.735 36.9168 111.455 36.1332 110.895 35.5913C110.35 35.0348 109.643 34.7565 108.773 34.7565C107.919 34.7565 107.211 35.0348 106.651 35.5913C106.091 36.1332 105.811 36.9168 105.811 37.9421V38.1617C105.811 39.1869 106.091 39.9779 106.651 40.5344C107.211 41.0764 107.919 41.3473 108.773 41.3473Z" fill="white"/>
<path d="M116.096 43.5003V32.6034H118.881V43.5003H116.096ZM117.489 31.3292C116.988 31.3292 116.561 31.1681 116.207 30.8459C115.868 30.5236 115.699 30.0989 115.699 29.5717C115.699 29.0444 115.868 28.6197 116.207 28.2974C116.561 27.9753 116.988 27.8141 117.489 27.8141C118.005 27.8141 118.432 27.9753 118.771 28.2974C119.11 28.6197 119.279 29.0444 119.279 29.5717C119.279 30.0989 119.11 30.5236 118.771 30.8459C118.432 31.1681 118.005 31.3292 117.489 31.3292Z" fill="white"/>
<path d="M120.973 47.8942V32.6034H123.714V33.9217H124.112C124.362 33.4969 124.752 33.1234 125.283 32.8012C125.814 32.4643 126.573 32.2959 127.56 32.2959C128.444 32.2959 129.262 32.5155 130.013 32.955C130.765 33.3797 131.369 34.0095 131.826 34.8444C132.282 35.6792 132.511 36.6898 132.511 37.8761V38.2277C132.511 39.414 132.282 40.4246 131.826 41.2594C131.369 42.0943 130.765 42.7314 130.013 43.1708C129.262 43.5955 128.444 43.8079 127.56 43.8079C126.896 43.8079 126.336 43.7273 125.879 43.5662C125.437 43.4197 125.077 43.2293 124.797 42.995C124.531 42.746 124.318 42.497 124.156 42.2481H123.758V47.8942H120.973ZM126.72 41.3912C127.589 41.3912 128.304 41.1202 128.864 40.5783C129.438 40.0218 129.726 39.2162 129.726 38.1617V37.9421C129.726 36.8875 129.438 36.0892 128.864 35.5473C128.289 34.9908 127.575 34.7125 126.72 34.7125C125.865 34.7125 125.15 34.9908 124.576 35.5473C124.001 36.0892 123.714 36.8875 123.714 37.9421V38.1617C123.714 39.2162 124.001 40.0218 124.576 40.5783C125.15 41.1202 125.865 41.3912 126.72 41.3912Z" fill="white"/>
<path d="M138.627 43.8079C137.197 43.8079 136.026 43.5003 135.112 42.8852C134.199 42.27 133.646 41.3912 133.454 40.2488L136.019 39.5898C136.122 40.1023 136.292 40.5052 136.527 40.7981C136.778 41.091 137.08 41.3033 137.434 41.4352C137.801 41.5523 138.199 41.611 138.627 41.611C139.275 41.611 139.754 41.501 140.064 41.2814C140.373 41.047 140.528 40.7614 140.528 40.4246C140.528 40.0877 140.381 39.8314 140.086 39.6556C139.792 39.4652 139.32 39.3115 138.671 39.1943L138.052 39.0844C137.286 38.9379 136.586 38.7402 135.952 38.4913C135.319 38.2277 134.81 37.8688 134.427 37.4148C134.044 36.9607 133.852 36.3748 133.852 35.6572C133.852 34.5734 134.25 33.7459 135.046 33.1747C135.842 32.5888 136.889 32.2959 138.185 32.2959C139.408 32.2959 140.425 32.5669 141.235 33.1088C142.045 33.6507 142.576 34.3611 142.827 35.2398L140.241 36.0307C140.123 35.4742 139.88 35.0786 139.511 34.8444C139.157 34.61 138.715 34.4928 138.185 34.4928C137.654 34.4928 137.249 34.588 136.969 34.7784C136.69 34.9542 136.549 35.2032 136.549 35.5254C136.549 35.8769 136.696 36.1405 136.992 36.3163C137.286 36.4774 137.684 36.6019 138.185 36.6898L138.803 36.7996C139.629 36.9461 140.373 37.1438 141.037 37.3928C141.714 37.6271 142.244 37.9713 142.628 38.4254C143.026 38.8648 143.225 39.4652 143.225 40.2269C143.225 41.3693 142.804 42.2554 141.964 42.8852C141.14 43.5003 140.027 43.8079 138.627 43.8079Z" fill="white"/>
<path d="M148.847 43.676C147.993 43.676 147.241 43.4856 146.593 43.1049C145.959 42.7093 145.465 42.1674 145.111 41.4791C144.759 40.7907 144.581 39.9998 144.581 39.1064V32.6034H147.366V38.8867C147.366 39.7068 147.565 40.322 147.963 40.7321C148.375 41.1422 148.958 41.3472 149.709 41.3472C150.563 41.3472 151.227 41.0689 151.699 40.5124C152.17 39.9412 152.406 39.1503 152.406 38.1397V32.6034H155.191V43.5003H152.45V42.0722H152.053C151.875 42.4384 151.544 42.7972 151.058 43.1487C150.571 43.5003 149.834 43.676 148.847 43.676Z" fill="white"/>
<path d="M157.296 43.5003V32.6034H160.036V33.7898H160.434C160.625 33.4236 160.943 33.1088 161.384 32.8451C161.826 32.5669 162.409 32.4277 163.131 32.4277C163.912 32.4277 164.538 32.5815 165.01 32.889C165.481 33.182 165.842 33.5701 166.093 34.0534H166.49C166.741 33.5848 167.095 33.1967 167.552 32.889C168.009 32.5815 168.657 32.4277 169.497 32.4277C170.175 32.4277 170.786 32.5742 171.331 32.8671C171.891 33.1453 172.333 33.5774 172.658 34.1633C172.996 34.7345 173.166 35.4594 173.166 36.3383V43.5003H170.38V36.536C170.38 35.9355 170.226 35.4888 169.917 35.1959C169.607 34.8883 169.173 34.7345 168.613 34.7345C167.979 34.7345 167.485 34.9396 167.131 35.3496C166.793 35.7451 166.624 36.3163 166.624 37.0633V43.5003H163.838V36.536C163.838 35.9355 163.683 35.4888 163.375 35.1959C163.065 34.8883 162.63 34.7345 162.07 34.7345C161.436 34.7345 160.943 34.9396 160.589 35.3496C160.25 35.7451 160.08 36.3163 160.08 37.0633V43.5003H157.296Z" fill="white"/>
</svg>
