<svg width="198" height="72" viewBox="0 0 198 72" fill="none" xmlns="http://www.w3.org/2000/svg">
<rect x="0.5" y="0.5" width="197" height="71" rx="9.5" stroke="#A1AEBF"/>
<path d="M32.4204 34.7254C33.2588 31.3365 35.2005 28.327 37.9362 26.1763C40.672 24.0256 44.0446 22.8572 47.517 22.8572C50.9894 22.8572 54.362 24.0256 57.0978 26.1763C59.8336 28.327 61.7752 31.3365 62.6136 34.7254H61.25C58.9496 34.6913 56.6965 35.3828 54.8068 36.7025C54.6977 36.782 54.5838 36.8545 54.4659 36.9197H54.3068C54.1888 36.8545 54.075 36.782 53.9659 36.7025C52.0595 35.4133 49.8143 34.7247 47.517 34.7247C45.2198 34.7247 42.9745 35.4133 41.0682 36.7025C40.9591 36.782 40.8452 36.8545 40.7273 36.9197H40.5682C40.4502 36.8545 40.3363 36.782 40.2273 36.7025C38.3376 35.3828 36.0844 34.6913 33.7841 34.7254H32.4204ZM58.7954 41.8911C59.4954 41.3429 60.3631 41.056 61.25 41.0797H63.0795V37.4111H61.25C59.6877 37.3921 58.1612 37.8812 56.8977 38.8054C56.1867 39.3326 55.3266 39.6171 54.4432 39.6171C53.5598 39.6171 52.6996 39.3326 51.9886 38.8054C50.6931 37.8984 49.1524 37.4121 47.5738 37.4121C45.9953 37.4121 44.4546 37.8984 43.1591 38.8054C42.4481 39.3326 41.5879 39.6171 40.7045 39.6171C39.8211 39.6171 38.961 39.3326 38.25 38.8054C36.9709 37.8693 35.4225 37.3797 33.8409 37.4111H31.9545V41.0797H33.7841C34.671 41.056 35.5386 41.3429 36.2386 41.8911C37.5318 42.7988 39.0708 43.2854 40.6477 43.2854C42.2246 43.2854 43.7636 42.7988 45.0568 41.8911C45.7577 41.3446 46.6246 41.058 47.5113 41.0797C48.3986 41.0541 49.2668 41.3412 49.9659 41.8911C51.2615 42.7982 52.8021 43.2844 54.3807 43.2844C55.9592 43.2844 57.4999 42.7982 58.7954 41.8911ZM58.7954 48.4511C59.4954 47.9029 60.3631 47.616 61.25 47.6397H63.0795V43.9711H61.25C59.6877 43.9521 58.1612 44.4412 56.8977 45.3654C56.1867 45.8926 55.3266 46.1771 54.4432 46.1771C53.5598 46.1771 52.6996 45.8926 51.9886 45.3654C50.6931 44.4584 49.1524 43.9723 47.5738 43.9723C45.9953 43.9723 44.4546 44.4584 43.1591 45.3654C42.4481 45.8926 41.5879 46.1771 40.7045 46.1771C39.8211 46.1771 38.961 45.8926 38.25 45.3654C36.9709 44.4294 35.4225 43.9397 33.8409 43.9711H31.9545V47.6397H33.7841C34.671 47.616 35.5386 47.9029 36.2386 48.4511C37.5318 49.3588 39.0708 49.8454 40.6477 49.8454C42.2246 49.8454 43.7636 49.3588 45.0568 48.4511C45.7577 47.9046 46.6246 47.618 47.5113 47.6397C48.3986 47.6141 49.2668 47.9012 49.9659 48.4511C51.2615 49.3582 52.8021 49.8444 54.3807 49.8444C55.9592 49.8444 57.4999 49.3582 58.7954 48.4511Z" fill="#4B5567"/>
<path d="M88.9929 37.592C88.9929 38.904 88.6969 40.064 88.1049 41.072C87.5289 42.064 86.7449 42.84 85.7529 43.4C84.7769 43.96 83.6809 44.24 82.4649 44.24C81.2489 44.24 80.1449 43.96 79.1529 43.4C78.1769 42.84 77.3929 42.064 76.8009 41.072C76.2249 40.064 75.9369 38.904 75.9369 37.592C75.9369 36.28 76.2249 35.128 76.8009 34.136C77.3929 33.128 78.1769 32.344 79.1529 31.784C80.1449 31.208 81.2489 30.92 82.4649 30.92C83.6809 30.92 84.7769 31.208 85.7529 31.784C86.7449 32.344 87.5289 33.128 88.1049 34.136C88.6969 35.128 88.9929 36.28 88.9929 37.592ZM86.1129 37.592C86.1129 36.776 85.9449 36.072 85.6089 35.48C85.2889 34.872 84.8489 34.4 84.2889 34.064C83.7449 33.728 83.1369 33.56 82.4649 33.56C81.7929 33.56 81.1769 33.728 80.6169 34.064C80.0729 34.4 79.6329 34.872 79.2969 35.48C78.9769 36.072 78.8169 36.776 78.8169 37.592C78.8169 38.392 78.9769 39.096 79.2969 39.704C79.6329 40.296 80.0729 40.76 80.6169 41.096C81.1769 41.432 81.7929 41.6 82.4649 41.6C83.1369 41.6 83.7449 41.432 84.2889 41.096C84.8489 40.76 85.2889 40.296 85.6089 39.704C85.9449 39.096 86.1129 38.392 86.1129 37.592ZM98.5934 26.24C98.9454 26.24 99.2894 26.288 99.6254 26.384C99.9614 26.48 100.241 26.64 100.465 26.864C100.689 27.072 100.801 27.352 100.801 27.704C100.801 28.104 100.681 28.424 100.441 28.664C100.217 28.888 99.9534 29 99.6494 29C99.5054 29 99.2894 28.968 99.0014 28.904C98.7134 28.824 98.4334 28.784 98.1614 28.784C97.7614 28.784 97.4494 28.872 97.2254 29.048C97.0174 29.224 96.8734 29.432 96.7934 29.672C96.7134 29.896 96.6734 30.096 96.6734 30.272V42.536C96.6734 42.952 96.5374 43.304 96.2654 43.592C95.9934 43.864 95.6494 44 95.2334 44C94.8174 44 94.4734 43.864 94.2014 43.592C93.9294 43.304 93.7934 42.952 93.7934 42.536V30.296C93.7934 29.16 94.1934 28.2 94.9934 27.416C95.7934 26.632 96.9934 26.24 98.5934 26.24ZM98.8574 31.4C99.2414 31.4 99.5614 31.528 99.8174 31.784C100.073 32.024 100.201 32.336 100.201 32.72C100.201 33.104 100.073 33.424 99.8174 33.68C99.5614 33.92 99.2414 34.04 98.8574 34.04H92.4974C92.1134 34.04 91.7934 33.92 91.5374 33.68C91.2814 33.424 91.1534 33.104 91.1534 32.72C91.1534 32.336 91.2814 32.024 91.5374 31.784C91.7934 31.528 92.1134 31.4 92.4974 31.4H98.8574ZM109.081 26.24C109.433 26.24 109.777 26.288 110.113 26.384C110.449 26.48 110.729 26.64 110.953 26.864C111.177 27.072 111.289 27.352 111.289 27.704C111.289 28.104 111.169 28.424 110.929 28.664C110.705 28.888 110.441 29 110.137 29C109.993 29 109.777 28.968 109.489 28.904C109.201 28.824 108.921 28.784 108.649 28.784C108.249 28.784 107.937 28.872 107.713 29.048C107.505 29.224 107.361 29.432 107.281 29.672C107.201 29.896 107.161 30.096 107.161 30.272V42.536C107.161 42.952 107.025 43.304 106.753 43.592C106.481 43.864 106.137 44 105.721 44C105.305 44 104.961 43.864 104.689 43.592C104.417 43.304 104.281 42.952 104.281 42.536V30.296C104.281 29.16 104.681 28.2 105.481 27.416C106.281 26.632 107.481 26.24 109.081 26.24ZM109.345 31.4C109.729 31.4 110.049 31.528 110.305 31.784C110.561 32.024 110.689 32.336 110.689 32.72C110.689 33.104 110.561 33.424 110.305 33.68C110.049 33.92 109.729 34.04 109.345 34.04H102.985C102.601 34.04 102.281 33.92 102.025 33.68C101.769 33.424 101.641 33.104 101.641 32.72C101.641 32.336 101.769 32.024 102.025 31.784C102.281 31.528 102.601 31.4 102.985 31.4H109.345ZM120.194 30.92C121.474 30.92 122.418 31.232 123.026 31.856C123.634 32.464 124.034 33.256 124.226 34.232L123.818 34.016L124.01 33.632C124.202 33.264 124.498 32.872 124.898 32.456C125.298 32.024 125.778 31.664 126.338 31.376C126.914 31.072 127.554 30.92 128.258 30.92C129.41 30.92 130.282 31.168 130.874 31.664C131.482 32.16 131.898 32.824 132.122 33.656C132.346 34.472 132.458 35.384 132.458 36.392V42.536C132.458 42.952 132.322 43.304 132.05 43.592C131.778 43.864 131.434 44 131.018 44C130.602 44 130.258 43.864 129.986 43.592C129.714 43.304 129.578 42.952 129.578 42.536V36.392C129.578 35.864 129.514 35.392 129.386 34.976C129.258 34.544 129.026 34.2 128.69 33.944C128.354 33.688 127.874 33.56 127.25 33.56C126.642 33.56 126.122 33.688 125.69 33.944C125.258 34.2 124.93 34.544 124.706 34.976C124.498 35.392 124.394 35.864 124.394 36.392V42.536C124.394 42.952 124.258 43.304 123.986 43.592C123.714 43.864 123.37 44 122.954 44C122.538 44 122.194 43.864 121.922 43.592C121.65 43.304 121.514 42.952 121.514 42.536V36.392C121.514 35.864 121.45 35.392 121.322 34.976C121.194 34.544 120.962 34.2 120.626 33.944C120.29 33.688 119.81 33.56 119.186 33.56C118.578 33.56 118.058 33.688 117.626 33.944C117.194 34.2 116.866 34.544 116.642 34.976C116.434 35.392 116.33 35.864 116.33 36.392V42.536C116.33 42.952 116.194 43.304 115.922 43.592C115.65 43.864 115.306 44 114.89 44C114.474 44 114.13 43.864 113.858 43.592C113.586 43.304 113.45 42.952 113.45 42.536V32.624C113.45 32.208 113.586 31.864 113.858 31.592C114.13 31.304 114.474 31.16 114.89 31.16C115.306 31.16 115.65 31.304 115.922 31.592C116.194 31.864 116.33 32.208 116.33 32.624V33.656L115.97 33.584C116.114 33.312 116.314 33.024 116.57 32.72C116.826 32.4 117.138 32.104 117.506 31.832C117.874 31.56 118.282 31.344 118.73 31.184C119.178 31.008 119.666 30.92 120.194 30.92ZM146.567 30.92C146.983 30.92 147.327 31.056 147.599 31.328C147.871 31.6 148.007 31.952 148.007 32.384V42.536C148.007 42.952 147.871 43.304 147.599 43.592C147.327 43.864 146.983 44 146.567 44C146.151 44 145.807 43.864 145.535 43.592C145.263 43.304 145.127 42.952 145.127 42.536V41.36L145.655 41.576C145.655 41.784 145.543 42.04 145.319 42.344C145.095 42.632 144.791 42.92 144.407 43.208C144.023 43.496 143.567 43.744 143.039 43.952C142.527 44.144 141.967 44.24 141.359 44.24C140.255 44.24 139.255 43.96 138.359 43.4C137.463 42.824 136.751 42.04 136.223 41.048C135.711 40.04 135.455 38.888 135.455 37.592C135.455 36.28 135.711 35.128 136.223 34.136C136.751 33.128 137.455 32.344 138.335 31.784C139.215 31.208 140.191 30.92 141.263 30.92C141.951 30.92 142.583 31.024 143.159 31.232C143.735 31.44 144.231 31.704 144.647 32.024C145.079 32.344 145.407 32.672 145.631 33.008C145.871 33.328 145.991 33.6 145.991 33.824L145.127 34.136V32.384C145.127 31.968 145.263 31.624 145.535 31.352C145.807 31.064 146.151 30.92 146.567 30.92ZM141.719 41.6C142.423 41.6 143.039 41.424 143.567 41.072C144.095 40.72 144.503 40.24 144.791 39.632C145.095 39.024 145.247 38.344 145.247 37.592C145.247 36.824 145.095 36.136 144.791 35.528C144.503 34.92 144.095 34.44 143.567 34.088C143.039 33.736 142.423 33.56 141.719 33.56C141.031 33.56 140.423 33.736 139.895 34.088C139.367 34.44 138.951 34.92 138.647 35.528C138.359 36.136 138.215 36.824 138.215 37.592C138.215 38.344 138.359 39.024 138.647 39.632C138.951 40.24 139.367 40.72 139.895 41.072C140.423 41.424 141.031 41.6 141.719 41.6ZM151.869 31.16C152.333 31.16 152.725 31.36 153.045 31.76L161.061 41.72C161.269 41.976 161.373 42.264 161.373 42.584C161.373 42.984 161.221 43.328 160.917 43.616C160.613 43.904 160.277 44.048 159.909 44.048C159.445 44.048 159.053 43.84 158.733 43.424L150.717 33.464C150.509 33.208 150.405 32.92 150.405 32.6C150.405 32.184 150.549 31.84 150.837 31.568C151.141 31.296 151.485 31.16 151.869 31.16ZM151.893 44.024C151.573 44.024 151.253 43.904 150.933 43.664C150.629 43.408 150.477 43.104 150.477 42.752C150.477 42.432 150.597 42.128 150.837 41.84L154.509 37.352L155.949 39.752L153.045 43.424C152.741 43.824 152.357 44.024 151.893 44.024ZM159.885 31.16C160.269 31.16 160.589 31.296 160.845 31.568C161.117 31.824 161.253 32.12 161.253 32.456C161.253 32.616 161.229 32.776 161.181 32.936C161.133 33.096 161.045 33.248 160.917 33.392L157.293 37.808L155.781 35.72L158.733 31.808C159.053 31.376 159.437 31.16 159.885 31.16Z" fill="white"/>
</svg>
