<svg width="198" height="72" viewBox="0 0 198 72" fill="none" xmlns="http://www.w3.org/2000/svg">
<rect x="0.5" y="0.5" width="197" height="71" rx="9.5" stroke="#A1AEBF"/>
<path d="M40.0301 40.1027V48.1194C40.0301 48.4268 39.9073 48.7215 39.6886 48.9387C39.4701 49.156 39.1735 49.2781 38.8643 49.2781C38.5552 49.2781 38.2587 49.156 38.04 48.9387C37.8214 48.7215 37.6985 48.4268 37.6985 48.1194V40.1137C38.0232 40.3494 38.4123 40.4809 38.8141 40.4907C39.2521 40.5032 39.6812 40.3662 40.0301 40.1027ZM49.9587 37.7852C49.6629 37.7852 49.3791 37.9021 49.1699 38.11C48.9607 38.3179 48.8431 38.6 48.8431 38.894V40.2912C48.8431 40.5985 48.966 40.8932 49.1846 41.1105C49.4032 41.3278 49.6997 41.4499 50.0089 41.4499C50.3182 41.4499 50.6147 41.3278 50.8332 41.1105C51.0519 40.8932 51.1747 40.5985 51.1747 40.2912V38.9495C51.1834 38.7905 51.1575 38.6315 51.0988 38.4833C51.0402 38.3352 50.9501 38.2013 50.8347 38.0908C50.7193 37.9804 50.5813 37.8959 50.4303 37.8431C50.2791 37.7904 50.1182 37.7707 49.9587 37.7852ZM35.1662 43.1408C34.7648 43.1288 34.3762 42.9976 34.0506 42.7638V50.8027C34.0506 51.1115 34.174 51.4077 34.3937 51.626C34.6134 51.8443 34.9113 51.967 35.222 51.967C35.5326 51.967 35.8306 51.8443 36.0502 51.626C36.2699 51.4077 36.3933 51.1115 36.3933 50.8027V42.8193C36.029 43.0533 35.5992 43.166 35.1662 43.1408ZM46.3219 35.3791C46.1708 35.3716 46.0197 35.3947 45.8778 35.4471C45.736 35.4994 45.6064 35.5799 45.4967 35.6836C45.3872 35.7874 45.3001 35.9121 45.2405 36.0504C45.181 36.1887 45.1504 36.3376 45.1506 36.4879V42.664C45.1506 42.9728 45.274 43.269 45.4936 43.4873C45.7134 43.7056 46.0113 43.8283 46.3219 43.8283C46.6326 43.8283 46.9306 43.7056 47.1503 43.4873C47.3699 43.269 47.4933 42.9728 47.4933 42.664V36.5655C47.5022 36.4055 47.4761 36.2455 47.4168 36.0965C47.3574 35.9475 47.2664 35.813 47.1497 35.7023C47.033 35.5917 46.8937 35.5074 46.7412 35.4555C46.5887 35.4035 46.4266 35.385 46.2662 35.4013L46.3219 35.3791ZM42.6182 37.752C42.198 37.7491 41.789 37.6175 41.4469 37.375V45.4361C41.4469 45.7449 41.5703 46.041 41.7899 46.2594C42.0097 46.4777 42.3075 46.6003 42.6182 46.6003C42.9289 46.6003 43.2268 46.4777 43.4465 46.2594C43.6662 46.041 43.7896 45.7449 43.7896 45.4361V37.3861C43.4357 37.6481 43.0037 37.7847 42.5624 37.7741L42.6182 37.752ZM32.6338 43.9281V21.408C32.6309 21.1335 32.5191 20.8713 32.3228 20.6782C32.1264 20.4851 31.8614 20.3768 31.5852 20.3768H31.3397C31.0636 20.3768 30.7985 20.4851 30.6022 20.6782C30.4058 20.8713 30.294 21.1335 30.2911 21.408V43.9281C30.2911 44.2045 30.4016 44.4696 30.5982 44.6651C30.7949 44.8606 31.0616 44.9704 31.3397 44.9704H31.5852C31.8633 44.9704 32.13 44.8606 32.3267 44.6651C32.5233 44.4696 32.6338 44.2045 32.6338 43.9281ZM35.2889 42.287H35.0435C34.7653 42.287 34.4986 42.1772 34.302 41.9818C34.1053 41.7863 33.9948 41.5212 33.9948 41.2447V24.0914C33.9978 23.8169 34.1095 23.5546 34.3059 23.3615C34.5022 23.1684 34.7673 23.0602 35.0435 23.0602H35.2889C35.5651 23.0602 35.8301 23.1684 36.0265 23.3615C36.2228 23.5546 36.3346 23.8169 36.3375 24.0914V41.2669C36.3375 41.5433 36.227 41.8085 36.0304 42.0039C35.8337 42.1994 35.567 42.3092 35.2889 42.3092V42.287ZM38.9814 39.648H38.7249C38.4498 39.648 38.1858 39.5394 37.9913 39.346C37.7967 39.1526 37.6874 38.8904 37.6874 38.6168V26.7525C37.6859 26.6162 37.7117 26.4809 37.7631 26.3545C37.8146 26.2281 37.8907 26.1131 37.9872 26.0162C38.0837 25.9192 38.1986 25.8423 38.3253 25.7898C38.4519 25.7373 38.5876 25.7102 38.7249 25.7102H38.9814C39.2577 25.7132 39.5215 25.8243 39.7157 26.0194C39.9101 26.2146 40.0189 26.478 40.0189 26.7525V38.6168C40.0189 38.8904 39.9096 39.1526 39.7151 39.346C39.5205 39.5394 39.2567 39.648 38.9814 39.648ZM42.674 36.9314H42.4397C42.1635 36.9314 41.8985 36.8232 41.7021 36.6301C41.5058 36.437 41.394 36.1748 41.3911 35.9002V29.5135C41.3819 29.3711 41.4022 29.2284 41.4509 29.0941C41.4994 28.9599 41.5753 28.837 41.6736 28.7331C41.7718 28.6291 41.8905 28.5464 42.0224 28.4898C42.1541 28.4334 42.2962 28.4043 42.4397 28.4047H42.6852C42.9633 28.4047 43.23 28.5144 43.4267 28.7099C43.6234 28.9054 43.7338 29.1705 43.7338 29.4469V35.8781C43.7353 36.0159 43.7093 36.1526 43.6572 36.2803C43.6052 36.4081 43.5282 36.5243 43.4306 36.6223C43.3331 36.7202 43.2171 36.7979 43.089 36.8511C42.961 36.9042 42.8238 36.9314 42.6852 36.9314H42.674ZM46.3777 34.5475H46.1323C45.8542 34.5475 45.5874 34.4377 45.3908 34.2422C45.1941 34.0468 45.0837 33.7816 45.0837 33.5052V31.8531C45.0866 31.5785 45.1983 31.3163 45.3947 31.1232C45.591 30.9301 45.8561 30.8219 46.1323 30.8219H46.3777C46.6539 30.8219 46.919 30.9301 47.1153 31.1232C47.3117 31.3163 47.4235 31.5785 47.4264 31.8531V33.5052C47.4264 33.7797 47.3175 34.0432 47.1231 34.2384C46.9289 34.4335 46.6651 34.5446 46.3889 34.5475H46.3777Z" fill="white"/>
<path d="M81.996 38.592C81.996 39.904 81.7 41.064 81.108 42.072C80.532 43.064 79.748 43.84 78.756 44.4C77.78 44.96 76.684 45.24 75.468 45.24C74.252 45.24 73.148 44.96 72.156 44.4C71.18 43.84 70.396 43.064 69.804 42.072C69.228 41.064 68.94 39.904 68.94 38.592C68.94 37.28 69.228 36.128 69.804 35.136C70.396 34.128 71.18 33.344 72.156 32.784C73.148 32.208 74.252 31.92 75.468 31.92C76.684 31.92 77.78 32.208 78.756 32.784C79.748 33.344 80.532 34.128 81.108 35.136C81.7 36.128 81.996 37.28 81.996 38.592ZM79.116 38.592C79.116 37.776 78.948 37.072 78.612 36.48C78.292 35.872 77.852 35.4 77.292 35.064C76.748 34.728 76.14 34.56 75.468 34.56C74.796 34.56 74.18 34.728 73.62 35.064C73.076 35.4 72.636 35.872 72.3 36.48C71.98 37.072 71.82 37.776 71.82 38.592C71.82 39.392 71.98 40.096 72.3 40.704C72.636 41.296 73.076 41.76 73.62 42.096C74.18 42.432 74.796 42.6 75.468 42.6C76.14 42.6 76.748 42.432 77.292 42.096C77.852 41.76 78.292 41.296 78.612 40.704C78.948 40.096 79.116 39.392 79.116 38.592ZM91.5966 27.24C91.9486 27.24 92.2926 27.288 92.6286 27.384C92.9646 27.48 93.2446 27.64 93.4686 27.864C93.6926 28.072 93.8046 28.352 93.8046 28.704C93.8046 29.104 93.6846 29.424 93.4446 29.664C93.2206 29.888 92.9566 30 92.6526 30C92.5086 30 92.2926 29.968 92.0046 29.904C91.7166 29.824 91.4366 29.784 91.1646 29.784C90.7646 29.784 90.4526 29.872 90.2286 30.048C90.0206 30.224 89.8766 30.432 89.7966 30.672C89.7166 30.896 89.6766 31.096 89.6766 31.272V43.536C89.6766 43.952 89.5406 44.304 89.2686 44.592C88.9966 44.864 88.6526 45 88.2366 45C87.8206 45 87.4766 44.864 87.2046 44.592C86.9326 44.304 86.7966 43.952 86.7966 43.536V31.296C86.7966 30.16 87.1966 29.2 87.9966 28.416C88.7966 27.632 89.9966 27.24 91.5966 27.24ZM91.8606 32.4C92.2446 32.4 92.5646 32.528 92.8206 32.784C93.0766 33.024 93.2046 33.336 93.2046 33.72C93.2046 34.104 93.0766 34.424 92.8206 34.68C92.5646 34.92 92.2446 35.04 91.8606 35.04H85.5006C85.1166 35.04 84.7966 34.92 84.5406 34.68C84.2846 34.424 84.1566 34.104 84.1566 33.72C84.1566 33.336 84.2846 33.024 84.5406 32.784C84.7966 32.528 85.1166 32.4 85.5006 32.4H91.8606ZM102.085 27.24C102.437 27.24 102.781 27.288 103.117 27.384C103.453 27.48 103.733 27.64 103.957 27.864C104.181 28.072 104.293 28.352 104.293 28.704C104.293 29.104 104.173 29.424 103.933 29.664C103.709 29.888 103.445 30 103.141 30C102.997 30 102.781 29.968 102.493 29.904C102.205 29.824 101.925 29.784 101.653 29.784C101.253 29.784 100.941 29.872 100.717 30.048C100.509 30.224 100.365 30.432 100.285 30.672C100.205 30.896 100.165 31.096 100.165 31.272V43.536C100.165 43.952 100.029 44.304 99.7566 44.592C99.4846 44.864 99.1406 45 98.7246 45C98.3086 45 97.9646 44.864 97.6926 44.592C97.4206 44.304 97.2846 43.952 97.2846 43.536V31.296C97.2846 30.16 97.6846 29.2 98.4846 28.416C99.2846 27.632 100.485 27.24 102.085 27.24ZM102.349 32.4C102.733 32.4 103.053 32.528 103.309 32.784C103.565 33.024 103.693 33.336 103.693 33.72C103.693 34.104 103.565 34.424 103.309 34.68C103.053 34.92 102.733 35.04 102.349 35.04H95.9886C95.6046 35.04 95.2846 34.92 95.0286 34.68C94.7726 34.424 94.6446 34.104 94.6446 33.72C94.6446 33.336 94.7726 33.024 95.0286 32.784C95.2846 32.528 95.6046 32.4 95.9886 32.4H102.349ZM113.197 31.92C114.477 31.92 115.421 32.232 116.029 32.856C116.637 33.464 117.037 34.256 117.229 35.232L116.821 35.016L117.013 34.632C117.205 34.264 117.501 33.872 117.901 33.456C118.301 33.024 118.781 32.664 119.341 32.376C119.917 32.072 120.557 31.92 121.261 31.92C122.413 31.92 123.285 32.168 123.877 32.664C124.485 33.16 124.901 33.824 125.125 34.656C125.349 35.472 125.461 36.384 125.461 37.392V43.536C125.461 43.952 125.325 44.304 125.053 44.592C124.781 44.864 124.437 45 124.021 45C123.605 45 123.261 44.864 122.989 44.592C122.717 44.304 122.581 43.952 122.581 43.536V37.392C122.581 36.864 122.517 36.392 122.389 35.976C122.261 35.544 122.029 35.2 121.693 34.944C121.357 34.688 120.877 34.56 120.253 34.56C119.645 34.56 119.125 34.688 118.693 34.944C118.261 35.2 117.933 35.544 117.709 35.976C117.501 36.392 117.397 36.864 117.397 37.392V43.536C117.397 43.952 117.261 44.304 116.989 44.592C116.717 44.864 116.373 45 115.957 45C115.541 45 115.197 44.864 114.925 44.592C114.653 44.304 114.517 43.952 114.517 43.536V37.392C114.517 36.864 114.453 36.392 114.325 35.976C114.197 35.544 113.965 35.2 113.629 34.944C113.293 34.688 112.813 34.56 112.189 34.56C111.581 34.56 111.061 34.688 110.629 34.944C110.197 35.2 109.869 35.544 109.645 35.976C109.437 36.392 109.333 36.864 109.333 37.392V43.536C109.333 43.952 109.197 44.304 108.925 44.592C108.653 44.864 108.309 45 107.893 45C107.477 45 107.133 44.864 106.861 44.592C106.589 44.304 106.453 43.952 106.453 43.536V33.624C106.453 33.208 106.589 32.864 106.861 32.592C107.133 32.304 107.477 32.16 107.893 32.16C108.309 32.16 108.653 32.304 108.925 32.592C109.197 32.864 109.333 33.208 109.333 33.624V34.656L108.973 34.584C109.117 34.312 109.317 34.024 109.573 33.72C109.829 33.4 110.141 33.104 110.509 32.832C110.877 32.56 111.285 32.344 111.733 32.184C112.181 32.008 112.669 31.92 113.197 31.92ZM139.57 31.92C139.986 31.92 140.33 32.056 140.602 32.328C140.874 32.6 141.01 32.952 141.01 33.384V43.536C141.01 43.952 140.874 44.304 140.602 44.592C140.33 44.864 139.986 45 139.57 45C139.154 45 138.81 44.864 138.538 44.592C138.266 44.304 138.13 43.952 138.13 43.536V42.36L138.658 42.576C138.658 42.784 138.546 43.04 138.322 43.344C138.098 43.632 137.794 43.92 137.41 44.208C137.026 44.496 136.57 44.744 136.042 44.952C135.53 45.144 134.97 45.24 134.362 45.24C133.258 45.24 132.258 44.96 131.362 44.4C130.466 43.824 129.754 43.04 129.226 42.048C128.714 41.04 128.458 39.888 128.458 38.592C128.458 37.28 128.714 36.128 129.226 35.136C129.754 34.128 130.458 33.344 131.338 32.784C132.218 32.208 133.194 31.92 134.266 31.92C134.954 31.92 135.586 32.024 136.162 32.232C136.738 32.44 137.234 32.704 137.65 33.024C138.082 33.344 138.41 33.672 138.634 34.008C138.874 34.328 138.994 34.6 138.994 34.824L138.13 35.136V33.384C138.13 32.968 138.266 32.624 138.538 32.352C138.81 32.064 139.154 31.92 139.57 31.92ZM134.722 42.6C135.426 42.6 136.042 42.424 136.57 42.072C137.098 41.72 137.506 41.24 137.794 40.632C138.098 40.024 138.25 39.344 138.25 38.592C138.25 37.824 138.098 37.136 137.794 36.528C137.506 35.92 137.098 35.44 136.57 35.088C136.042 34.736 135.426 34.56 134.722 34.56C134.034 34.56 133.426 34.736 132.898 35.088C132.37 35.44 131.954 35.92 131.65 36.528C131.362 37.136 131.218 37.824 131.218 38.592C131.218 39.344 131.362 40.024 131.65 40.632C131.954 41.24 132.37 41.72 132.898 42.072C133.426 42.424 134.034 42.6 134.722 42.6ZM144.872 32.16C145.336 32.16 145.728 32.36 146.048 32.76L154.064 42.72C154.272 42.976 154.376 43.264 154.376 43.584C154.376 43.984 154.224 44.328 153.92 44.616C153.616 44.904 153.28 45.048 152.912 45.048C152.448 45.048 152.056 44.84 151.736 44.424L143.72 34.464C143.512 34.208 143.408 33.92 143.408 33.6C143.408 33.184 143.552 32.84 143.84 32.568C144.144 32.296 144.488 32.16 144.872 32.16ZM144.896 45.024C144.576 45.024 144.256 44.904 143.936 44.664C143.632 44.408 143.48 44.104 143.48 43.752C143.48 43.432 143.6 43.128 143.84 42.84L147.512 38.352L148.952 40.752L146.048 44.424C145.744 44.824 145.36 45.024 144.896 45.024ZM152.888 32.16C153.272 32.16 153.592 32.296 153.848 32.568C154.12 32.824 154.256 33.12 154.256 33.456C154.256 33.616 154.232 33.776 154.184 33.936C154.136 34.096 154.048 34.248 153.92 34.392L150.296 38.808L148.784 36.72L151.736 32.808C152.056 32.376 152.44 32.16 152.888 32.16Z" fill="white"/>
</svg>
